<?xml version="1.0" encoding="iso-8859-1"?>
<!-- Generator: Adobe Illustrator 26.5.1, SVG Export Plug-In . SVG Version: 6.00 Build 0)  -->
<svg xmlns="http://www.w3.org/2000/svg" xmlns:xlink="http://www.w3.org/1999/xlink" version="1.1" id="Capa_1" x="0px" y="0px" viewBox="0 0 512 512" style="enable-background:new 0 0 512 512;" xml:space="preserve">
<g>
	<g>
		<g>
			<path style="fill:#B1B9C6;" d="M459.099,102.092c-17.655-24.667-91.444,2.654-124.227,16.394     c-14.29-4.879-33.079-9.023-54.802-12.523c-21.694-3.695-40.818-5.832-55.919-5.824c-26.605-23.597-87.639-73.232-112.291-55.588     c-24.483,17.522-10.057,79.157-1.999,106.889c-18.641,22.186-28.423,48.245-32.267,71.444     c-3.324,20.061-4.254,40.492-2.769,61.324c2.902,40.659,28.844,75.81,66.931,90.324c13.611,5.181,27.334,9.684,41.164,13.545     l-7.949,1.44c-67.499,46.465-21.289,106.786,32.77,91.323c3.281-0.939,6.523-2.041,9.719-3.28     c18.954,14.145,45.71,22.961,75.365,22.961c57.467,0,104.054-33.107,104.054-73.947c0-14.867-6.179-28.707-16.804-40.301     c15.982-11.095,28.869-26.67,36.776-45.389c8.125-19.239,13.836-38.879,17.16-58.94c3.843-23.194,2.991-51.008-7.49-78.014     C443.059,180.302,476.627,126.584,459.099,102.092z"/>
			<g>
				<path style="fill:#678490;" d="M281.408,311.91c-0.237,1.267-0.494,2.504-0.827,3.729c-0.798,3.081-1.859,6.014-3.152,8.778      c-7.608,16.268-23.046,26.197-38.641,23.352c-9.124-1.695-16.637-7.433-21.568-15.513c-0.352-0.555-0.653-1.101-0.976-1.677      c-4.791-8.762-6.704-19.92-4.58-31.481c4.257-23.328,20.473-23.594,39.716-20.065      C270.648,282.567,285.695,288.561,281.408,311.91z"/>
				<path style="fill:#FD80A6;" d="M277.428,324.417c-7.608,16.268-23.046,26.197-38.641,23.352      c-9.124-1.695-16.637-7.433-21.568-15.513c6.13-15.077,19.226-25.211,33.865-24.483      C261.966,308.323,271.403,314.746,277.428,324.417z"/>
			</g>
			<path style="fill:#678490;" d="M463.571,98.876c-9.187-12.836-29.501-15.576-62.1-8.38c-24.67,5.446-50.995,15.467-68.734,22.914     l4.266,10.162c61.99-26.023,107.053-33.028,117.606-18.281c10.143,14.173,0.058,46.437-26.991,87.229     c-3.312-6.955-7.33-13.933-12.211-20.826l-8.994,6.369c27.658,39.061,25.757,81.288,22.162,102.983     c-3.242,19.565-8.894,38.977-16.799,57.696c-7.383,17.475-19.476,32.38-34.976,43.102c-15.52,10.736-33.72,16.768-52.631,17.443     c-30.942,1.091-61.807-0.87-91.737-5.829c-29.931-4.96-59.779-13.059-88.713-24.072c-17.685-6.739-32.966-18.318-44.193-33.486     c-11.212-15.149-17.853-33.158-19.203-52.08c-1.445-20.269-0.534-40.466,2.708-60.032c3.595-21.694,15.416-62.277,54.196-90.329     l-6.46-8.93c-6.844,4.951-12.898,10.261-18.277,15.776c-12.481-47.322-11.628-81.117,2.57-91.277     c14.724-10.538,55.121,10.628,105.425,55.24l7.313-8.245c-14.416-12.784-36.123-30.77-57.678-43.86     c-28.532-17.325-48.64-21.282-61.475-12.097c-25.836,18.491-14.612,75.669-4.888,110.082     c-20.95,25.975-28.728,54.509-31.599,71.84c-3.385,20.419-4.337,41.486-2.83,62.618c1.5,21.014,8.879,41.019,21.338,57.853     c12.483,16.865,29.471,29.738,49.13,37.23c29.619,11.274,60.18,19.566,90.833,24.646c25.168,4.17,50.971,6.271,76.934,6.271     c5.658,0,11.329-0.1,16.997-0.3c21.021-0.75,41.254-7.456,58.509-19.393c17.224-11.915,30.661-28.471,38.859-47.878     c8.243-19.515,14.137-39.764,17.519-60.182c2.872-17.331,4.714-46.846-6.736-78.188c8.752-12.715,20.142-30.858,27.934-49.185     C471.386,130.212,472.371,111.17,463.571,98.876z"/>
			<g>
				<g>
					<path style="fill:#91A2B5;" d="M153.86,287.075c-0.299,0-0.603-0.024-0.908-0.075l-31.588-5.234       c-3.002-0.497-5.033-3.335-4.535-6.337c0.498-3.002,3.335-5.038,6.338-4.536l31.588,5.234c3.002,0.498,5.033,3.335,4.535,6.337       C158.843,285.162,156.507,287.075,153.86,287.075z"/>
					<path style="fill:#91A2B5;" d="M123.086,312.466c-2.589,0-4.897-1.832-5.405-4.468c-0.576-2.989,1.379-5.878,4.368-6.454       l27.43-5.29c2.991-0.58,5.879,1.38,6.454,4.367c0.576,2.989-1.379,5.878-4.368,6.454l-27.43,5.29       C123.783,312.433,123.432,312.466,123.086,312.466z"/>
				</g>
			</g>
			<g>
				<path style="fill:#FFFFFF;" d="M323.407,239.529c-0.299,0-0.603-0.024-0.908-0.075l-16.571-2.746      c-3.002-0.498-5.033-3.335-4.535-6.337c0.498-3.003,3.336-5.035,6.338-4.536l16.571,2.746c3.002,0.497,5.033,3.335,4.535,6.337      C328.389,237.616,326.054,239.529,323.407,239.529z"/>
				<path style="fill:#FFFFFF;" d="M214.329,221.455c-0.299,0-0.603-0.024-0.908-0.075l-16.57-2.746      c-3.002-0.497-5.033-3.335-4.535-6.337c0.498-3.002,3.332-5.036,6.338-4.535l16.57,2.746c3.002,0.497,5.033,3.335,4.535,6.338      C219.312,219.541,216.976,221.455,214.329,221.455z"/>
			</g>
			<path style="fill:#678490;" d="M278.832,283.87c-5.678-4.893-13.507-7.481-21.135-9.179l1.556-9.392l3.434,0.569     c0.305,0.05,0.609,0.075,0.908,0.075c2.647,0,4.983-1.913,5.43-4.611c0.498-3.002-1.533-5.84-4.535-6.338l-17.742-2.939     c-3.004-0.502-5.84,1.533-6.337,4.535c-0.498,3.003,1.533,5.84,4.535,6.337l3.435,0.569l-1.527,9.214     c-7.682-1.098-15.845-1.431-22.833,1.111c-9.476,3.445-15.461,11.621-17.785,24.299c-2.299,12.545-0.401,25.131,5.345,35.438     c5.94,10.654,15.25,17.628,26.214,19.638c2.107,0.386,4.21,0.573,6.298,0.573c19.94,0,38.383-17.069,42.747-40.872     C289.164,300.22,286.471,290.454,278.832,283.87z M275.999,310.911c-3.39,18.496-17.155,31.844-31.853,31.842     c-1.447,0-2.907-0.13-4.363-0.397c-7.67-1.407-14.267-6.437-18.576-14.165c-4.503-8.076-5.97-18.049-4.13-28.083     c2.118-11.558,7.126-14.626,10.709-15.928c2.552-0.928,5.52-1.284,8.666-1.284c4.523,0,9.409,0.736,13.943,1.567     c7.69,1.41,16.226,3.434,21.241,7.755C274.525,294.708,278.119,299.353,275.999,310.911z"/>
			<g>
				<path style="fill:#605C5D;" d="M197.382,269.377c-0.646,0-1.297-0.113-1.926-0.348c-16.949-6.326-40.74-9.39-40.979-9.421      c-3.019-0.383-5.156-3.14-4.774-6.159c0.382-3.019,3.145-5.16,6.159-4.775c0.767,0.097,14.592,1.875,29.117,5.614      c-3.83-5.403-8.826-11.396-14.265-15.205c-2.492-1.746-3.099-5.182-1.352-7.675c1.745-2.493,5.181-3.098,7.675-1.353      c14.148,9.908,24.8,30.422,25.247,31.291c1.04,2.024,0.73,4.479-0.782,6.181C200.436,268.727,198.927,269.377,197.382,269.377z"/>
				<path style="fill:#605C5D;" d="M350.505,292.02c-0.367,0-0.739-0.037-1.112-0.113c-0.236-0.048-23.731-4.824-41.828-4.301      c-2.272,0.066-4.355-1.273-5.239-3.372c-0.882-2.098-0.384-4.522,1.254-6.103c0.702-0.678,17.402-16.66,33.99-21.475      c2.923-0.845,5.98,0.834,6.829,3.756c0.848,2.923-0.834,5.98-3.756,6.829c-6.377,1.851-13.038,5.913-18.406,9.792      c14.956,1.145,28.614,3.922,29.372,4.077c2.981,0.613,4.901,3.525,4.29,6.506C355.363,290.224,353.066,292.02,350.505,292.02z"/>
			</g>
		</g>
		<g>
			<path style="fill:#FD80A6;" d="M454.348,216.044c-6.33-4.223-12.756-8.258-19.254-12.143     c4.879-22.162,11.28-75.109-21.786-126.988c-1.354-2.124-3.117-3.991-5.136-5.496c-60.095-44.823-113.769-51.961-113.769-51.961     S241.295,8.9,169.954,31.943c-2.396,0.774-4.668,1.972-6.634,3.546c-48.033,38.44-59.052,90.622-61.582,113.173     c-7.404,1.582-14.788,3.328-22.142,5.284c-8.205,2.182-13.088,10.601-10.905,18.805c2.182,8.203,10.6,13.086,18.805,10.906     c119.464-31.769,246.959-10.642,349.792,57.963c1.873,1.249,3.921,2.033,6.008,2.379c5.777,0.957,11.848-1.447,15.308-6.636     C463.316,230.299,461.41,220.756,454.348,216.044z"/>
			
				<ellipse transform="matrix(0.7071 -0.7071 0.7071 0.7071 22.6609 229.1634)" style="fill:#FFFFFF;" cx="287.955" cy="87.228" rx="27.159" ry="27.159"/>
			<path style="fill:#FE518E;" d="M287.955,119.898c-18.014,0-32.67-14.655-32.67-32.67c0-18.015,14.656-32.67,32.67-32.67     c18.015,0,32.67,14.656,32.67,32.67C320.625,105.242,305.97,119.898,287.955,119.898z M287.955,65.579     c-11.937,0-21.648,9.712-21.648,21.649c0,11.937,9.711,21.648,21.648,21.648c11.937,0,21.649-9.711,21.649-21.648     C309.604,75.291,299.892,65.579,287.955,65.579z"/>
			<path style="fill:#FE518E;" d="M445.798,249.714c-1.129,0-2.267-0.091-3.404-0.28c0,0,0,0,0,0     c-2.93-0.486-5.676-1.572-8.163-3.23C332.713,178.476,206.85,157.62,88.912,188.981c-11.126,2.957-22.587-3.689-25.547-14.814     c-2.959-11.127,3.687-22.587,14.814-25.547c129.52-34.442,267.742-11.536,379.229,62.84c9.577,6.391,12.171,19.382,5.781,28.96     C459.282,246.277,452.702,249.714,445.798,249.714z M444.197,238.561c3.822,0.63,7.677-1.038,9.824-4.258     c3.018-4.523,1.793-10.658-2.73-13.676c-108.855-72.62-243.815-94.984-370.279-61.357c-5.254,1.398-8.392,6.81-6.995,12.064     c1.397,5.254,6.812,8.39,12.064,6.995c120.993-32.175,250.117-10.777,354.266,58.705     C441.522,237.819,442.818,238.332,444.197,238.561L444.197,238.561z"/>
			<path style="fill:#FE518E;" d="M417.949,73.934c-1.687-2.632-3.931-5.033-6.492-6.946     c-16.499-12.312-34.118-22.982-52.368-31.716c-0.113-0.063-0.227-0.123-0.344-0.179c-2.676-1.272-5.232-2.427-7.601-3.487     c-0.283-0.145-0.529-0.248-0.708-0.317c-30.921-13.599-52.778-16.94-55.126-17.271c-3.981-0.764-56.471-10.111-127.06,12.671     c-3.004,0.973-5.894,2.523-8.369,4.492c-50.129,40.114-61.178,95.078-63.6,116.848l10.953,1.219     c2.272-20.406,12.62-71.921,59.522-109.453c1.439-1.145,3.13-2.051,4.885-2.62c5.613-1.812,11.112-3.407,16.484-4.816     c-8.061,6.533-15.709,14.636-22.835,24.246c-17.495,23.591-30.44,54.687-35.515,85.315l10.873,1.802     c4.799-28.959,17.008-58.319,33.496-80.552c11.622-15.672,30.134-34.1,54.947-38.59c38.563-4.564,63.884,0.211,64.242,0.281     c0.112,0.023,0.23,0.042,0.343,0.057c0.214,0.029,21.603,3.02,51.849,16.254c-0.065,0.002-0.11,0.004-0.11,0.004     c0.353,0.129,0.693,0.272,1.042,0.406c0,0,0,0,0,0c2.271,1.016,4.718,2.12,7.255,3.322     c22.599,12.117,34.401,35.898,40.423,54.721c8.435,26.363,10.52,58.092,5.722,87.051l10.873,1.802     c5.075-30.628,2.853-64.237-6.098-92.212c-3.641-11.38-8.259-21.505-13.772-30.281c4.746,3.148,9.424,6.417,14.004,9.834     c1.51,1.128,2.826,2.533,3.798,4.049c32.292,50.692,25.475,102.776,21.046,122.816c-0.011,0.049-0.026,0.124-0.036,0.174     l5.84,1.109l4.958,1.096C445.196,183.684,452.463,128.112,417.949,73.934z"/>
		</g>
	</g>
	
		<ellipse transform="matrix(0.5719 -0.8204 0.8204 0.5719 -167.0077 484.3762)" style="fill:#B1B9C6;" cx="380.548" cy="402.188" rx="41.095" ry="63.668"/>
	<path style="fill:#678490;" d="M402.966,457.32c-0.759,0-1.524-0.014-2.298-0.041c-15.351-0.546-31.961-6.534-46.772-16.858   c-14.81-10.324-26.174-23.837-31.997-38.051c-6.16-15.036-5.486-29.15,1.898-39.743c7.384-10.593,20.377-16.107,36.632-15.53   c15.349,0.546,31.961,6.535,46.771,16.858l0,0c14.81,10.324,26.174,23.837,31.997,38.05c6.16,15.036,5.487,29.15-1.897,39.743   C430.267,451.837,418.131,457.32,402.966,457.32z M358.141,358.078c-11.46,0-20.4,3.818-25.303,10.852   c-5.17,7.417-5.434,17.809-0.741,29.262c5.029,12.275,15.009,24.061,28.102,33.188c25.861,18.027,57.029,19.889,68.059,4.066   c11.03-15.823-1.5-44.421-27.362-62.449l0,0c-13.092-9.126-27.604-14.412-40.86-14.884   C359.398,358.089,358.766,358.078,358.141,358.078z"/>
	<path style="fill:#B1B9C6;" d="M188.771,410.321c0,0,16.794-20.724,91.383-39.855l21.858,39.855c0,0-42.296,55.654-94.271,70.521   L188.771,410.321z"/>
	<path style="fill:#678490;" d="M190.495,488.799c-8.02,0-15.862-1.466-23.042-4.378c-12.389-5.025-22.107-13.931-27.366-25.078   c-5.386-11.42-5.695-24.086-0.892-36.63c5.263-13.746,16.249-26.442,32.652-37.733c2.507-1.725,5.938-1.092,7.663,1.414   c1.726,2.507,1.093,5.938-1.415,7.664c-26.762,18.423-37.244,41.071-28.04,60.583c8.759,18.57,32.908,27.558,56.17,20.902   c43.112-12.332,79.972-54.55,89.188-65.792l-18.026-32.869c-67.5,17.889-84.216,36.769-84.38,36.962   c-1.914,2.364-5.363,2.702-7.729,0.785c-2.364-1.916-2.705-5.413-0.79-7.778c6.664-8.223,34.023-26.263,94.296-41.723   c2.432-0.628,4.99,0.48,6.201,2.688l21.858,39.854c1.046,1.908,0.872,4.253-0.444,5.984c-1.772,2.332-44.015,57.289-97.142,72.485   C203.05,487.916,196.718,488.799,190.495,488.799z"/>
	<g>
		<path style="fill:#FFFFFF;" d="M296.987,453.354c-0.839-2.795-2.536-5.354-5.099-7.173L293,446.97l43.746-61.595l-30.056-21.347    l-43.747,61.595l1.09,0.774c-3.577-2.54-7.942-3.053-11.839-1.87c-2.797,0.845-5.359,2.536-7.182,5.103    c-1.091,1.536-1.819,3.22-2.201,4.951c-1.147,5.185,0.806,10.797,5.416,14.071l27.855,19.783    c6.147,4.365,14.683,2.919,19.033-3.206c1.844-2.596,2.598-5.615,2.443-8.568C297.503,455.537,297.314,454.431,296.987,453.354z"/>
		<path style="fill:#FFBF8C;" d="M335.955,385.513l-29.641-21.051l134.752-223.131c3.171-5.251,8.743-8.584,14.869-8.895l0,0    c22.788-1.157,43.392,13.476,49.807,35.374v0c1.724,5.887,0.413,12.246-3.501,16.97L335.955,385.513z"/>
		<path style="fill:#FF9D6F;" d="M335.953,391.023c-1.108,0-2.222-0.332-3.188-1.018l-29.641-21.051    c-2.352-1.671-3.018-4.872-1.526-7.342l134.751-223.131c4.123-6.828,11.34-11.145,19.306-11.55    c25.461-1.276,48.215,14.88,55.375,39.328c2.242,7.656,0.542,15.893-4.546,22.035L340.199,389.028    C339.114,390.338,337.542,391.023,335.953,391.023z M313.677,362.931l21.298,15.126l163.022-196.794    c2.749-3.318,3.667-7.769,2.456-11.905c-5.72-19.532-23.924-32.453-44.238-31.419c-4.304,0.218-8.203,2.551-10.431,6.24    L313.677,362.931z"/>
		<path style="fill:#E3E3E3;" d="M342.18,384.455c-0.245-1.441-1.051-2.726-2.243-3.572l-30.057-21.347    c-2.482-1.761-5.922-1.179-7.684,1.302l-41.282,58.127c-2.575-0.663-5.286-0.781-7.989-0.319    c-5.04,0.861-9.447,3.633-12.411,7.805c-6.112,8.607-4.083,20.582,4.523,26.695l27.855,19.783    c3.365,2.39,7.243,3.538,11.085,3.538c5.997,0,11.905-2.799,15.632-8.045c2.98-4.198,4.137-9.287,3.264-14.273    c-0.443-2.705-1.442-5.23-2.92-7.451l41.286-58.131C342.086,387.375,342.423,385.896,342.18,384.455z M290.622,462.038    c-2.593,3.652-7.685,4.506-11.349,1.904l-27.855-19.783c-3.652-2.594-4.513-7.676-1.919-11.327    c1.261-1.776,3.137-2.956,5.281-3.323c2.135-0.363,4.288,0.123,6.056,1.377l0.006,0.004c0.002,0.001,0.004,0.002,0.005,0.003    l-0.004,0.006l27.856,19.785l0.005-0.006c1.775,1.263,2.945,3.129,3.302,5.311C292.378,458.111,291.887,460.259,290.622,462.038z     M291.694,439.293l-21.071-14.966l37.369-52.615l21.071,14.965L291.694,439.293z"/>
	</g>
	<g>
		<path style="fill:#B1B9C6;" d="M254.529,414.932c16.898,10.988,39.503,6.197,50.491-10.701    c10.988-16.898,6.197-39.503-10.701-50.491c-16.898-10.988-31.647-1.089-42.635,15.809    C240.697,386.447,237.632,403.945,254.529,414.932z"/>
		<path style="fill:#678490;" d="M274.358,426.331c-7.848,0-15.779-2.191-22.833-6.779l0,0    c-9.447-6.143-14.422-14.828-14.386-25.114c0.03-8.425,3.37-17.81,9.926-27.893c14.554-22.378,32.873-28.732,50.26-17.424    c19.418,12.627,24.943,38.696,12.317,58.115C301.601,419.599,288.11,426.331,274.358,426.331z M257.533,410.312    c14.322,9.313,33.555,5.24,42.868-9.085c9.314-14.323,5.239-33.553-9.084-42.867c-12.025-7.82-23.804-3.043-35.012,14.193    c-5.306,8.159-8.123,15.741-8.145,21.922C248.137,401.016,251.204,406.197,257.533,410.312L257.533,410.312z"/>
	</g>
	<g>
		<path style="fill:#B1B9C6;" d="M362.807,342.898c-18.022-9.027-39.949-1.735-48.975,16.287    c-9.027,18.022-1.735,39.949,16.287,48.975c18.022,9.027,31.57-2.462,40.597-20.484    C379.742,369.655,380.829,351.925,362.807,342.898z"/>
		<path style="fill:#678490;" d="M342.219,416.794c-4.724,0-9.607-1.221-14.567-3.706c-20.71-10.373-29.12-35.661-18.747-56.37    c5.025-10.032,13.655-17.507,24.303-21.048c10.648-3.541,22.035-2.724,32.067,2.301c18.545,9.288,22.324,28.305,10.369,52.174    C366.886,407.629,355.155,416.792,342.219,416.794z M346.493,344.529c-3.291,0-6.594,0.53-9.808,1.599    c-7.853,2.611-14.219,8.125-17.926,15.525c-7.652,15.276-1.448,33.929,13.828,41.581c6.751,3.382,12.771,3.409,18.402,0.083    c5.323-3.143,10.441-9.405,14.799-18.107c9.207-18.383,7.374-30.961-5.449-37.384    C355.967,345.635,351.244,344.529,346.493,344.529z"/>
	</g>
	<g>
		
			<ellipse transform="matrix(0.8812 -0.4727 0.4727 0.8812 -167.2467 100.3826)" style="fill:#FFFFFF;" cx="116.145" cy="383.024" rx="61.221" ry="52.91"/>
		<path style="fill:#E3E3E3;" d="M174.952,351.483c-7.448-13.887-20.637-23.571-37.137-27.267    c-16.203-3.632-33.707-1.028-49.283,7.326c-15.576,8.354-27.426,21.496-33.366,37.003c-6.048,15.79-5.277,32.134,2.172,46.021    c7.448,13.887,20.637,23.571,37.137,27.267c4.774,1.07,9.66,1.598,14.577,1.598c11.773,0,23.719-3.031,34.706-8.924    c15.576-8.354,27.426-21.496,33.366-37.003C183.172,381.714,182.401,365.37,174.952,351.483z M67.051,409.356    c-5.212-9.718-6.263-21.047-3.091-32.333c11.167,3.62,20.02,10.762,25.226,20.469c5.211,9.716,6.26,21.038,3.086,32.324    C81.117,426.214,72.262,419.073,67.051,409.356z M138.549,424.795c-11.261,6.04-23.643,8.544-35.475,7.286    c3.713-13.807,2.298-27.727-4.176-39.799c-6.469-12.061-17.284-20.946-30.848-25.51c5.496-10.55,14.43-19.478,25.691-25.518    c5.593-3,11.463-5.123,17.403-6.355c-7.962,16.739-8.077,35.385,0.154,50.732c8.226,15.338,23.825,25.549,42.178,28.17    C149.163,418.073,144.146,421.793,138.549,424.795z M166.832,393.562c-1.316,3.436-2.992,6.733-4.976,9.861    c-17.852-0.34-33.323-8.979-40.845-23.001c-7.525-14.03-6.179-31.714,3.389-46.753c3.716,0.076,7.404,0.494,11.007,1.301    c13.327,2.986,23.922,10.7,29.833,21.722C171.152,367.714,171.717,380.808,166.832,393.562z"/>
	</g>
	<path style="fill:#E3E3E3;" d="M5.517,454.475c-1.925,0-3.793-1.009-4.805-2.805c-1.495-2.651-0.558-6.012,2.094-7.507   l39.295-22.157c2.651-1.492,6.013-0.557,7.507,2.093c1.495,2.651,0.558,6.012-2.094,7.507L8.218,453.763   C7.363,454.245,6.434,454.475,5.517,454.475z"/>
	<path style="fill:#E3E3E3;" d="M25.165,476.632c-1.925,0-3.793-1.009-4.805-2.805c-1.495-2.651-0.558-6.012,2.094-7.507   l39.295-22.157c2.652-1.493,6.013-0.557,7.507,2.094c1.495,2.651,0.558,6.012-2.094,7.507l-39.295,22.157   C27.011,476.402,26.081,476.632,25.165,476.632z"/>
</g>
<g>
</g>
<g>
</g>
<g>
</g>
<g>
</g>
<g>
</g>
<g>
</g>
<g>
</g>
<g>
</g>
<g>
</g>
<g>
</g>
<g>
</g>
<g>
</g>
<g>
</g>
<g>
</g>
<g>
</g>
</svg>
